<svg version="1.2" xmlns="http://www.w3.org/2000/svg" viewBox="0 0 200 220" width="200" height="220">
	<title>New Project</title>
	<defs>
		<linearGradient id="g1" x2="1" gradientUnits="userSpaceOnUse" gradientTransform="matrix(116.93,158.8,-145.572,107.19,-1.658,25.842)">
			<stop offset="0" stop-color="#41d1ff"/>
			<stop offset="1" stop-color="#bd34fe"/>
		</linearGradient>
		<linearGradient id="g2" x2="1" gradientUnits="userSpaceOnUse" gradientTransform="matrix(21.152,145.101,-87.87,12.809,94.669,13.494)">
			<stop offset="0" stop-color="#ffea83"/>
			<stop offset=".083" stop-color="#ffdd35"/>
			<stop offset="1" stop-color="#ffa800"/>
		</linearGradient>
	</defs>
	<style>
		.s0 { fill: url(#g1) } 
		.s1 { fill: url(#g2) } 
	</style>
	<path class="s0" d="m199.3 39.4l-93.9 168c-2 3.5-6.9 3.5-8.9 0l-95.8-168c-2.2-3.8 1.1-8.3 5.3-7.6l94.1 16.9q0.9 0.1 1.8 0l92.1-16.8c4.2-0.8 7.4 3.7 5.3 7.5z"/>
	<path class="s1" d="m144.9 9.8l-69.6 13.6c-1.1 0.2-1.9 1.2-2 2.4l-4.3 72.2c-0.1 1.7 1.5 3 3.1 2.6l19.4-4.4c1.8-0.4 3.4 1.2 3.1 3l-5.8 28.1c-0.4 1.9 1.4 3.6 3.3 3l11.9-3.6c1.9-0.6 3.6 1 3.3 2.9l-9.2 44.3c-0.6 2.7 3.1 4.2 4.7 1.9l1-1.6 56.6-113.1c1-1.9-0.6-4-2.7-3.6l-20 3.8c-1.8 0.4-3.4-1.4-2.9-3.2l13-45.1c0.5-1.8-1.1-3.6-2.9-3.2z"/>
</svg>